<?xml version="1.0" encoding="iso-8859-1"?>
<!-- Uploaded to: SVG Repo, www.svgrepo.com, Generator: SVG Repo Mixer Tools -->
<svg version="1.1" id="Layer_1" xmlns="http://www.w3.org/2000/svg" xmlns:xlink="http://www.w3.org/1999/xlink" 
	 viewBox="0 0 512 512" xml:space="preserve">
<polygon style="fill:#BDDBFF;" points="372.87,267.13 372.87,233.739 406.261,233.739 406.261,200.348 439.652,200.348 
	439.652,166.957 473.043,166.957 473.043,133.565 506.435,133.565 506.435,0 439.652,0 439.652,33.391 406.261,33.391 
	406.261,66.783 372.87,66.783 372.87,100.174 339.478,100.174 339.478,133.565 306.087,133.565 306.087,166.957 272.696,166.957 
	272.696,200.348 239.304,200.348 239.304,166.957 205.913,166.957 205.913,133.565 172.522,133.565 172.522,100.174 139.13,100.174 
	139.13,66.783 105.739,66.783 105.739,33.391 72.348,33.391 72.348,0 5.565,0 5.565,133.565 38.957,133.565 38.957,166.957 
	72.348,166.957 72.348,200.348 105.739,200.348 105.739,233.739 139.13,233.739 139.13,267.13 172.522,267.13 172.522,300.522 
	61.217,300.522 61.217,333.914 27.827,333.914 27.827,478.609 61.217,478.609 61.217,512 205.913,512 205.913,478.61 
	239.304,478.61 239.304,400.696 272.698,400.696 272.698,478.61 306.087,478.61 306.087,512 450.783,512 450.783,478.61 
	484.174,478.61 484.174,333.914 450.783,333.914 450.783,300.522 339.478,300.522 339.478,267.13 "/>
<polygon style="fill:#9BC9FF;" points="439.652,0 439.652,33.391 406.261,33.391 406.261,66.783 372.87,66.783 372.87,100.174 
	339.478,100.174 339.478,133.565 306.087,133.565 306.087,166.957 272.696,166.957 272.696,200.348 239.304,200.348 
	239.304,233.739 272.696,233.739 272.696,267.13 306.087,267.13 306.087,300.522 339.478,300.522 339.478,267.13 372.87,267.13 
	372.87,233.739 406.261,233.739 406.261,200.348 439.652,200.348 439.652,166.957 473.043,166.957 473.043,133.565 506.435,133.565 
	506.435,0 "/>
<polygon style="fill:#2488FF;" points="239.304,333.913 205.913,333.913 205.913,300.522 61.217,300.522 61.217,333.913 
	27.826,333.913 27.826,478.609 61.217,478.609 61.217,512 205.913,512 205.913,478.609 239.304,478.609 "/>
<polygon style="fill:#005ECE;" points="484.174,333.913 450.783,333.913 450.783,300.522 306.087,300.522 306.087,333.913 
	272.696,333.913 272.696,478.609 306.087,478.609 306.087,512 450.783,512 450.783,478.609 484.174,478.609 "/>
<rect x="61.217" y="478.609" width="144.696" height="33.391"/>
<rect x="27.826" y="333.913" width="33.391" height="144.696"/>
<rect x="272.696" y="166.957" width="33.39" height="33.391"/>
<rect x="306.087" y="133.565" width="33.391" height="33.391"/>
<rect x="339.478" y="100.174" width="33.391" height="33.391"/>
<rect x="372.87" y="66.783" width="33.391" height="33.391"/>
<rect x="406.261" y="33.391" width="33.391" height="33.391"/>
<rect x="306.087" y="478.609" width="144.696" height="33.391"/>
<rect x="450.783" y="333.913" width="33.391" height="144.696"/>
<polygon points="205.913,333.913 205.913,300.522 205.913,267.13 172.522,267.13 172.522,300.522 61.217,300.522 61.217,333.913 
	172.522,333.913 "/>
<rect x="372.87" y="200.348" width="33.391" height="33.391"/>
<rect x="406.261" y="166.957" width="33.391" height="33.391"/>
<rect x="439.652" y="133.565" width="33.391" height="33.391"/>
<polygon points="473.043,0 439.652,0 439.652,33.391 473.043,33.391 473.043,133.565 506.435,133.565 506.435,33.391 506.435,0 "/>
<rect x="339.478" y="233.739" width="33.391" height="33.391"/>
<polygon points="306.087,300.522 306.087,333.913 339.478,333.913 450.783,333.913 450.783,300.522 339.478,300.522 339.478,267.13 
	306.087,267.13 "/>
<rect x="205.913" y="166.957" width="33.391" height="33.391"/>
<rect x="172.522" y="133.565" width="33.391" height="33.391"/>
<rect x="139.13" y="100.174" width="33.391" height="33.391"/>
<rect x="105.739" y="66.783" width="33.391" height="33.391"/>
<rect x="72.348" y="33.391" width="33.391" height="33.391"/>
<polygon points="72.348,33.391 72.348,0 38.957,0 5.565,0 5.565,33.391 5.565,133.565 38.957,133.565 38.957,33.391 "/>
<rect x="105.739" y="200.348" width="33.391" height="33.391"/>
<rect x="72.348" y="166.957" width="33.391" height="33.391"/>
<rect x="38.957" y="133.565" width="33.391" height="33.391"/>
<rect x="139.13" y="233.739" width="33.391" height="33.391"/>
<rect x="239.304" y="200.348" width="33.391" height="33.391"/>
<polygon points="306.087,367.304 306.087,333.913 272.697,333.913 272.697,367.304 239.304,367.304 239.304,333.913 
	205.913,333.913 205.913,367.304 205.913,400.696 205.913,478.609 239.304,478.609 239.304,400.696 272.697,400.696 
	272.697,478.609 306.087,478.609 306.087,400.696 "/>
<rect x="272.696" y="233.739" width="33.39" height="33.391"/>
<rect x="339.478" y="367.304" width="77.913" height="77.913"/>
<rect x="94.609" y="367.304" width="77.913" height="77.913"/>
</svg>